<mxfile host="app.diagrams.net" modified="2023-04-26T08:09:59.924Z" agent="Mozilla/5.0 (Windows NT 10.0; Win64; x64) AppleWebKit/537.36 (KHTML, like Gecko) Chrome/112.0.0.0 Safari/537.36" etag="ePPNJI53hNMzAofbdV5w" version="21.2.2" type="device" pages="2">
  <diagram id="Sg7ZV_KuBf7xHADTHJAd" name="Page-1">
    <mxGraphModel dx="1900" dy="843" grid="0" gridSize="10" guides="1" tooltips="1" connect="1" arrows="1" fold="1" page="0" pageScale="1" pageWidth="827" pageHeight="1169" background="none" math="0" shadow="0">
      <root>
        <mxCell id="0" />
        <mxCell id="1" parent="0" />
        <mxCell id="JtI680RbjMdnWNYT66Pj-16" style="rounded=0;orthogonalLoop=1;jettySize=auto;html=1;exitX=0.5;exitY=0.5;exitDx=0;exitDy=0;exitPerimeter=0;entryX=0;entryY=0.5;entryDx=0;entryDy=0;endArrow=none;endFill=0;strokeWidth=2;fontSize=13;strokeColor=default;fontColor=default;labelBackgroundColor=none;" parent="1" source="JtI680RbjMdnWNYT66Pj-1" target="JtI680RbjMdnWNYT66Pj-2" edge="1">
          <mxGeometry relative="1" as="geometry" />
        </mxCell>
        <mxCell id="JtI680RbjMdnWNYT66Pj-17" style="rounded=0;orthogonalLoop=1;jettySize=auto;html=1;exitX=0.5;exitY=0.5;exitDx=0;exitDy=0;exitPerimeter=0;entryX=0;entryY=0.5;entryDx=0;entryDy=0;endArrow=none;endFill=0;strokeWidth=2;fontSize=13;strokeColor=default;fontColor=default;labelBackgroundColor=none;" parent="1" source="JtI680RbjMdnWNYT66Pj-1" target="JtI680RbjMdnWNYT66Pj-11" edge="1">
          <mxGeometry relative="1" as="geometry" />
        </mxCell>
        <mxCell id="JtI680RbjMdnWNYT66Pj-1" value="Customer" style="shape=umlActor;verticalLabelPosition=bottom;verticalAlign=top;html=1;strokeWidth=2;fontSize=13;strokeColor=default;fontColor=default;labelBackgroundColor=none;" parent="1" vertex="1">
          <mxGeometry x="70" y="290" width="30" height="60" as="geometry" />
        </mxCell>
        <mxCell id="JtI680RbjMdnWNYT66Pj-2" value="Take Membership" style="ellipse;whiteSpace=wrap;html=1;strokeWidth=2;fontSize=13;strokeColor=default;fontColor=default;labelBackgroundColor=none;" parent="1" vertex="1">
          <mxGeometry x="356" y="222" width="140" height="70" as="geometry" />
        </mxCell>
        <mxCell id="KUqp1MOufIAPbCy5ALb7-6" style="rounded=0;orthogonalLoop=1;jettySize=auto;html=1;exitX=0;exitY=0.5;exitDx=0;exitDy=0;entryX=0.5;entryY=0.5;entryDx=0;entryDy=0;entryPerimeter=0;endArrow=none;endFill=0;strokeWidth=2;" parent="1" source="JtI680RbjMdnWNYT66Pj-3" target="KUqp1MOufIAPbCy5ALb7-2" edge="1">
          <mxGeometry relative="1" as="geometry" />
        </mxCell>
        <mxCell id="JtI680RbjMdnWNYT66Pj-3" value="Rate the ride &lt;br style=&quot;font-size: 13px;&quot;&gt;experience and vehicleâ€™s efficiency" style="ellipse;whiteSpace=wrap;html=1;strokeWidth=2;fontSize=13;strokeColor=default;fontColor=default;labelBackgroundColor=none;" parent="1" vertex="1">
          <mxGeometry x="359" y="718" width="140" height="70" as="geometry" />
        </mxCell>
        <mxCell id="JtI680RbjMdnWNYT66Pj-4" value="Report preparation" style="ellipse;whiteSpace=wrap;html=1;strokeWidth=2;fontSize=13;strokeColor=default;fontColor=default;labelBackgroundColor=none;" parent="1" vertex="1">
          <mxGeometry x="630" y="999" width="141" height="70" as="geometry" />
        </mxCell>
        <mxCell id="KUqp1MOufIAPbCy5ALb7-5" style="rounded=0;orthogonalLoop=1;jettySize=auto;html=1;exitX=0;exitY=0.5;exitDx=0;exitDy=0;entryX=0.5;entryY=0.5;entryDx=0;entryDy=0;entryPerimeter=0;endArrow=none;endFill=0;strokeWidth=2;" parent="1" source="JtI680RbjMdnWNYT66Pj-5" target="KUqp1MOufIAPbCy5ALb7-2" edge="1">
          <mxGeometry relative="1" as="geometry">
            <mxPoint x="143.14289202008933" y="675.857125418527" as="targetPoint" />
          </mxGeometry>
        </mxCell>
        <mxCell id="JtI680RbjMdnWNYT66Pj-5" value="Hire a vehicle" style="ellipse;whiteSpace=wrap;html=1;strokeWidth=2;fontSize=13;strokeColor=default;fontColor=default;labelBackgroundColor=none;" parent="1" vertex="1">
          <mxGeometry x="359" y="601" width="140" height="70" as="geometry" />
        </mxCell>
        <mxCell id="JtI680RbjMdnWNYT66Pj-6" value="Register staff" style="ellipse;whiteSpace=wrap;html=1;strokeWidth=2;fontSize=13;strokeColor=default;fontColor=default;labelBackgroundColor=none;" parent="1" vertex="1">
          <mxGeometry x="630" y="871" width="140" height="70" as="geometry" />
        </mxCell>
        <mxCell id="KUqp1MOufIAPbCy5ALb7-4" style="rounded=0;orthogonalLoop=1;jettySize=auto;html=1;exitX=0;exitY=0.5;exitDx=0;exitDy=0;entryX=0.5;entryY=0.5;entryDx=0;entryDy=0;entryPerimeter=0;endArrow=none;endFill=0;strokeWidth=2;" parent="1" source="JtI680RbjMdnWNYT66Pj-7" target="KUqp1MOufIAPbCy5ALb7-2" edge="1">
          <mxGeometry relative="1" as="geometry" />
        </mxCell>
        <mxCell id="JtI680RbjMdnWNYT66Pj-7" value="Book cab" style="ellipse;whiteSpace=wrap;html=1;strokeWidth=2;fontSize=13;strokeColor=default;fontColor=default;labelBackgroundColor=none;" parent="1" vertex="1">
          <mxGeometry x="356" y="470" width="140" height="70" as="geometry" />
        </mxCell>
        <mxCell id="KUqp1MOufIAPbCy5ALb7-7" style="rounded=0;orthogonalLoop=1;jettySize=auto;html=1;exitX=0;exitY=0.5;exitDx=0;exitDy=0;entryX=0.5;entryY=0.5;entryDx=0;entryDy=0;entryPerimeter=0;endArrow=none;endFill=0;strokeWidth=2;" parent="1" source="JtI680RbjMdnWNYT66Pj-8" target="KUqp1MOufIAPbCy5ALb7-2" edge="1">
          <mxGeometry relative="1" as="geometry">
            <mxPoint x="160.28574916294644" y="850.714303152902" as="targetPoint" />
          </mxGeometry>
        </mxCell>
        <mxCell id="JtI680RbjMdnWNYT66Pj-8" value="Track the status &lt;br style=&quot;font-size: 13px;&quot;&gt;of drivers" style="ellipse;whiteSpace=wrap;html=1;strokeWidth=2;fontSize=13;strokeColor=default;fontColor=default;labelBackgroundColor=none;" parent="1" vertex="1">
          <mxGeometry x="356" y="825" width="140" height="70" as="geometry" />
        </mxCell>
        <mxCell id="JtI680RbjMdnWNYT66Pj-11" value="Join the training courses" style="ellipse;whiteSpace=wrap;html=1;strokeWidth=2;fontSize=13;strokeColor=default;fontColor=default;labelBackgroundColor=none;" parent="1" vertex="1">
          <mxGeometry x="359" y="346" width="140" height="70" as="geometry" />
        </mxCell>
        <mxCell id="JtI680RbjMdnWNYT66Pj-12" value="Register vehicle" style="ellipse;whiteSpace=wrap;html=1;strokeWidth=2;fontSize=13;strokeColor=default;fontColor=default;labelBackgroundColor=none;" parent="1" vertex="1">
          <mxGeometry x="634" y="753" width="140" height="70" as="geometry" />
        </mxCell>
        <mxCell id="JtI680RbjMdnWNYT66Pj-13" value="Hire a driver" style="ellipse;whiteSpace=wrap;html=1;strokeWidth=2;fontSize=13;strokeColor=default;fontColor=default;labelBackgroundColor=none;" parent="1" vertex="1">
          <mxGeometry x="634" y="540" width="140" height="70" as="geometry" />
        </mxCell>
        <mxCell id="JtI680RbjMdnWNYT66Pj-15" value="Confirm hire/hireing" style="ellipse;whiteSpace=wrap;html=1;strokeWidth=2;fontSize=13;strokeColor=default;fontColor=default;labelBackgroundColor=none;" parent="1" vertex="1">
          <mxGeometry x="634" y="645" width="140" height="70" as="geometry" />
        </mxCell>
        <mxCell id="JtI680RbjMdnWNYT66Pj-23" value="&amp;lt;&amp;lt;include&amp;gt;&amp;gt;" style="html=1;verticalAlign=bottom;labelBackgroundColor=none;endArrow=open;endFill=0;dashed=1;rounded=0;exitX=1;exitY=0.5;exitDx=0;exitDy=0;strokeWidth=2;fontSize=13;strokeColor=default;fontColor=default;" parent="1" source="JtI680RbjMdnWNYT66Pj-11" target="JtI680RbjMdnWNYT66Pj-14" edge="1">
          <mxGeometry x="-0.1397" y="9" width="160" relative="1" as="geometry">
            <mxPoint x="544" y="618" as="sourcePoint" />
            <mxPoint x="704" y="618" as="targetPoint" />
            <mxPoint as="offset" />
          </mxGeometry>
        </mxCell>
        <mxCell id="JtI680RbjMdnWNYT66Pj-25" value="&amp;lt;&amp;lt;include&amp;gt;&amp;gt;" style="html=1;verticalAlign=bottom;labelBackgroundColor=none;endArrow=open;endFill=0;dashed=1;rounded=0;entryX=0.063;entryY=0.763;entryDx=0;entryDy=0;exitX=1;exitY=0;exitDx=0;exitDy=0;entryPerimeter=0;strokeWidth=2;fontSize=13;strokeColor=default;fontColor=default;" parent="1" source="JtI680RbjMdnWNYT66Pj-5" target="JtI680RbjMdnWNYT66Pj-14" edge="1">
          <mxGeometry x="-0.459" y="25" width="160" relative="1" as="geometry">
            <mxPoint x="556" y="515" as="sourcePoint" />
            <mxPoint x="711" y="640" as="targetPoint" />
            <mxPoint y="1" as="offset" />
          </mxGeometry>
        </mxCell>
        <mxCell id="JtI680RbjMdnWNYT66Pj-30" style="rounded=0;orthogonalLoop=1;jettySize=auto;html=1;exitX=0.5;exitY=0.5;exitDx=0;exitDy=0;exitPerimeter=0;entryX=1;entryY=0.5;entryDx=0;entryDy=0;endArrow=none;endFill=0;strokeWidth=2;fontSize=13;strokeColor=default;fontColor=default;labelBackgroundColor=none;" parent="1" source="JtI680RbjMdnWNYT66Pj-27" target="JtI680RbjMdnWNYT66Pj-15" edge="1">
          <mxGeometry relative="1" as="geometry" />
        </mxCell>
        <mxCell id="JtI680RbjMdnWNYT66Pj-31" style="rounded=0;orthogonalLoop=1;jettySize=auto;html=1;exitX=0.5;exitY=0.5;exitDx=0;exitDy=0;exitPerimeter=0;entryX=1;entryY=0.5;entryDx=0;entryDy=0;endArrow=none;endFill=0;strokeWidth=2;fontSize=13;strokeColor=default;fontColor=default;labelBackgroundColor=none;" parent="1" source="JtI680RbjMdnWNYT66Pj-27" target="JtI680RbjMdnWNYT66Pj-12" edge="1">
          <mxGeometry relative="1" as="geometry" />
        </mxCell>
        <mxCell id="JtI680RbjMdnWNYT66Pj-27" value="Driver" style="shape=umlActor;verticalLabelPosition=bottom;verticalAlign=top;html=1;strokeWidth=2;fontSize=13;strokeColor=default;fontColor=default;labelBackgroundColor=none;" parent="1" vertex="1">
          <mxGeometry x="1020" y="687" width="30" height="60" as="geometry" />
        </mxCell>
        <mxCell id="JtI680RbjMdnWNYT66Pj-32" style="rounded=0;orthogonalLoop=1;jettySize=auto;html=1;exitX=0.5;exitY=0.5;exitDx=0;exitDy=0;exitPerimeter=0;entryX=1;entryY=0.5;entryDx=0;entryDy=0;endArrow=none;endFill=0;strokeWidth=2;fontSize=13;strokeColor=default;fontColor=default;labelBackgroundColor=none;" parent="1" source="JtI680RbjMdnWNYT66Pj-28" target="JtI680RbjMdnWNYT66Pj-6" edge="1">
          <mxGeometry relative="1" as="geometry" />
        </mxCell>
        <mxCell id="JtI680RbjMdnWNYT66Pj-33" style="rounded=0;orthogonalLoop=1;jettySize=auto;html=1;exitX=0.5;exitY=0.5;exitDx=0;exitDy=0;exitPerimeter=0;entryX=1;entryY=0.5;entryDx=0;entryDy=0;endArrow=none;endFill=0;strokeWidth=2;fontSize=13;strokeColor=default;fontColor=default;labelBackgroundColor=none;" parent="1" source="JtI680RbjMdnWNYT66Pj-28" target="JtI680RbjMdnWNYT66Pj-4" edge="1">
          <mxGeometry relative="1" as="geometry" />
        </mxCell>
        <mxCell id="JtI680RbjMdnWNYT66Pj-28" value="Admin" style="shape=umlActor;verticalLabelPosition=bottom;verticalAlign=top;html=1;strokeWidth=2;fontSize=13;strokeColor=default;fontColor=default;labelBackgroundColor=none;" parent="1" vertex="1">
          <mxGeometry x="1016" y="930" width="30" height="60" as="geometry" />
        </mxCell>
        <mxCell id="W9QEtiOxt6KoalJ0igwo-1" value="Allgemein" style="shape=umlFrame;whiteSpace=wrap;html=1;pointerEvents=0;recursiveResize=0;container=1;collapsible=0;width=160;strokeColor=default;fontColor=default;labelBackgroundColor=none;strokeWidth=2;" parent="1" vertex="1">
          <mxGeometry x="237" y="181" width="621" height="943" as="geometry" />
        </mxCell>
        <mxCell id="98QJETeo1Kw4cZLWInk4-1" value="&amp;nbsp;Announcement" style="ellipse;whiteSpace=wrap;html=1;strokeWidth=2;fontSize=13;strokeColor=default;fontColor=default;labelBackgroundColor=none;" parent="W9QEtiOxt6KoalJ0igwo-1" vertex="1">
          <mxGeometry x="269" y="751" width="140" height="70" as="geometry" />
        </mxCell>
        <mxCell id="JtI680RbjMdnWNYT66Pj-14" value="Payment" style="ellipse;whiteSpace=wrap;html=1;strokeWidth=2;fontSize=13;strokeColor=default;fontColor=default;labelBackgroundColor=none;" parent="W9QEtiOxt6KoalJ0igwo-1" vertex="1">
          <mxGeometry x="450" y="246" width="140" height="70" as="geometry" />
        </mxCell>
        <mxCell id="KUqp1MOufIAPbCy5ALb7-1" value="&amp;lt;&amp;lt;extend&amp;gt;&amp;gt;" style="html=1;verticalAlign=bottom;labelBackgroundColor=none;endArrow=open;endFill=0;dashed=1;rounded=0;entryX=1;entryY=0.5;entryDx=0;entryDy=0;exitX=0;exitY=0.5;exitDx=0;exitDy=0;strokeWidth=2;fontSize=13;strokeColor=default;fontColor=default;" parent="1" source="JtI680RbjMdnWNYT66Pj-13" target="JtI680RbjMdnWNYT66Pj-5" edge="1">
          <mxGeometry x="0.0158" y="33" width="160" relative="1" as="geometry">
            <mxPoint x="664" y="416" as="sourcePoint" />
            <mxPoint x="506" y="267" as="targetPoint" />
            <mxPoint as="offset" />
          </mxGeometry>
        </mxCell>
        <mxCell id="98QJETeo1Kw4cZLWInk4-3" style="rounded=0;orthogonalLoop=1;jettySize=auto;html=1;exitX=0.5;exitY=0.5;exitDx=0;exitDy=0;exitPerimeter=0;entryX=0;entryY=0.5;entryDx=0;entryDy=0;strokeWidth=2;endArrow=none;endFill=0;" parent="1" source="KUqp1MOufIAPbCy5ALb7-2" target="JtI680RbjMdnWNYT66Pj-11" edge="1">
          <mxGeometry relative="1" as="geometry" />
        </mxCell>
        <mxCell id="KUqp1MOufIAPbCy5ALb7-2" value="Member" style="shape=umlActor;verticalLabelPosition=bottom;verticalAlign=top;html=1;strokeWidth=2;fontSize=13;strokeColor=default;fontColor=default;labelBackgroundColor=none;" parent="1" vertex="1">
          <mxGeometry x="70" y="606" width="30" height="60" as="geometry" />
        </mxCell>
        <mxCell id="98QJETeo1Kw4cZLWInk4-2" style="rounded=0;orthogonalLoop=1;jettySize=auto;html=1;exitX=1;exitY=0.5;exitDx=0;exitDy=0;entryX=0.5;entryY=0.5;entryDx=0;entryDy=0;entryPerimeter=0;endArrow=none;endFill=0;strokeWidth=2;" parent="1" source="98QJETeo1Kw4cZLWInk4-1" target="JtI680RbjMdnWNYT66Pj-28" edge="1">
          <mxGeometry relative="1" as="geometry" />
        </mxCell>
        <mxCell id="VyOtGV6ZUo6Rr4ROJjhi-2" style="edgeStyle=orthogonalEdgeStyle;rounded=0;orthogonalLoop=1;jettySize=auto;html=1;exitX=0.5;exitY=0.5;exitDx=0;exitDy=0;exitPerimeter=0;startArrow=classic;startFill=1;endArrow=none;endFill=0;strokeWidth=2;" parent="1" source="VyOtGV6ZUo6Rr4ROJjhi-1" edge="1">
          <mxGeometry relative="1" as="geometry">
            <mxPoint x="85" y="599" as="targetPoint" />
          </mxGeometry>
        </mxCell>
        <mxCell id="VyOtGV6ZUo6Rr4ROJjhi-3" style="edgeStyle=orthogonalEdgeStyle;rounded=0;orthogonalLoop=1;jettySize=auto;html=1;exitX=0.5;exitY=0.5;exitDx=0;exitDy=0;exitPerimeter=0;startArrow=classic;startFill=1;endArrow=none;endFill=0;strokeWidth=2;" parent="1" source="VyOtGV6ZUo6Rr4ROJjhi-1" edge="1">
          <mxGeometry relative="1" as="geometry">
            <mxPoint x="85" y="376" as="targetPoint" />
            <mxPoint x="-131.9999999999999" y="457" as="sourcePoint" />
          </mxGeometry>
        </mxCell>
        <mxCell id="VyOtGV6ZUo6Rr4ROJjhi-1" value="User" style="shape=umlActor;verticalLabelPosition=bottom;verticalAlign=top;html=1;outlineConnect=0;" parent="1" vertex="1">
          <mxGeometry x="-68" y="427" width="30" height="60" as="geometry" />
        </mxCell>
      </root>
    </mxGraphModel>
  </diagram>
  <diagram id="TWoqfgrpCxAoebQHYecr" name="Page-2">
    <mxGraphModel dx="1506" dy="369" grid="0" gridSize="10" guides="1" tooltips="1" connect="1" arrows="1" fold="1" page="1" pageScale="1" pageWidth="850" pageHeight="1100" math="0" shadow="0">
      <root>
        <mxCell id="0" />
        <mxCell id="1" parent="0" />
        <mxCell id="A92oESy23BLJrJ6_xoGW-1" style="rounded=0;orthogonalLoop=1;jettySize=auto;html=1;exitX=0.5;exitY=0.5;exitDx=0;exitDy=0;exitPerimeter=0;entryX=0;entryY=0.5;entryDx=0;entryDy=0;endArrow=none;endFill=0;strokeWidth=2;fontSize=13;strokeColor=default;fontColor=default;labelBackgroundColor=none;" edge="1" parent="1" source="A92oESy23BLJrJ6_xoGW-3" target="A92oESy23BLJrJ6_xoGW-4">
          <mxGeometry relative="1" as="geometry" />
        </mxCell>
        <mxCell id="A92oESy23BLJrJ6_xoGW-2" style="rounded=0;orthogonalLoop=1;jettySize=auto;html=1;exitX=0.5;exitY=0.5;exitDx=0;exitDy=0;exitPerimeter=0;entryX=0;entryY=0.5;entryDx=0;entryDy=0;endArrow=none;endFill=0;strokeWidth=2;fontSize=13;strokeColor=default;fontColor=default;labelBackgroundColor=none;" edge="1" parent="1" source="A92oESy23BLJrJ6_xoGW-3" target="A92oESy23BLJrJ6_xoGW-15">
          <mxGeometry relative="1" as="geometry" />
        </mxCell>
        <mxCell id="A92oESy23BLJrJ6_xoGW-3" value="Customer" style="shape=umlActor;verticalLabelPosition=bottom;verticalAlign=top;html=1;strokeWidth=2;fontSize=13;strokeColor=default;fontColor=default;labelBackgroundColor=none;" vertex="1" parent="1">
          <mxGeometry x="70" y="290" width="30" height="60" as="geometry" />
        </mxCell>
        <mxCell id="A92oESy23BLJrJ6_xoGW-4" value="Take Membership" style="ellipse;whiteSpace=wrap;html=1;strokeWidth=2;fontSize=13;strokeColor=default;fontColor=default;labelBackgroundColor=none;" vertex="1" parent="1">
          <mxGeometry x="356" y="222" width="140" height="70" as="geometry" />
        </mxCell>
        <mxCell id="A92oESy23BLJrJ6_xoGW-5" style="rounded=0;orthogonalLoop=1;jettySize=auto;html=1;exitX=0;exitY=0.5;exitDx=0;exitDy=0;entryX=0.5;entryY=0.5;entryDx=0;entryDy=0;entryPerimeter=0;endArrow=none;endFill=0;strokeWidth=2;" edge="1" parent="1" source="A92oESy23BLJrJ6_xoGW-6" target="A92oESy23BLJrJ6_xoGW-32">
          <mxGeometry relative="1" as="geometry" />
        </mxCell>
        <mxCell id="A92oESy23BLJrJ6_xoGW-6" value="Rate the ride &lt;br style=&quot;font-size: 13px;&quot;&gt;experience and vehicleâ€™s efficiency" style="ellipse;whiteSpace=wrap;html=1;strokeWidth=2;fontSize=13;strokeColor=default;fontColor=default;labelBackgroundColor=none;" vertex="1" parent="1">
          <mxGeometry x="359" y="718" width="140" height="70" as="geometry" />
        </mxCell>
        <mxCell id="A92oESy23BLJrJ6_xoGW-7" value="Report preparation" style="ellipse;whiteSpace=wrap;html=1;strokeWidth=2;fontSize=13;strokeColor=default;fontColor=default;labelBackgroundColor=none;" vertex="1" parent="1">
          <mxGeometry x="630" y="999" width="141" height="70" as="geometry" />
        </mxCell>
        <mxCell id="A92oESy23BLJrJ6_xoGW-8" style="rounded=0;orthogonalLoop=1;jettySize=auto;html=1;exitX=0;exitY=0.5;exitDx=0;exitDy=0;entryX=0.5;entryY=0.5;entryDx=0;entryDy=0;entryPerimeter=0;endArrow=none;endFill=0;strokeWidth=2;" edge="1" parent="1" source="A92oESy23BLJrJ6_xoGW-9" target="A92oESy23BLJrJ6_xoGW-32">
          <mxGeometry relative="1" as="geometry">
            <mxPoint x="143.14289202008933" y="675.857125418527" as="targetPoint" />
          </mxGeometry>
        </mxCell>
        <mxCell id="A92oESy23BLJrJ6_xoGW-9" value="Hire a vehicle" style="ellipse;whiteSpace=wrap;html=1;strokeWidth=2;fontSize=13;strokeColor=default;fontColor=default;labelBackgroundColor=none;" vertex="1" parent="1">
          <mxGeometry x="359" y="601" width="140" height="70" as="geometry" />
        </mxCell>
        <mxCell id="A92oESy23BLJrJ6_xoGW-10" value="Register staff" style="ellipse;whiteSpace=wrap;html=1;strokeWidth=2;fontSize=13;strokeColor=default;fontColor=default;labelBackgroundColor=none;" vertex="1" parent="1">
          <mxGeometry x="630" y="871" width="140" height="70" as="geometry" />
        </mxCell>
        <mxCell id="A92oESy23BLJrJ6_xoGW-11" style="rounded=0;orthogonalLoop=1;jettySize=auto;html=1;exitX=0;exitY=0.5;exitDx=0;exitDy=0;entryX=0.5;entryY=0.5;entryDx=0;entryDy=0;entryPerimeter=0;endArrow=none;endFill=0;strokeWidth=2;" edge="1" parent="1" source="A92oESy23BLJrJ6_xoGW-12" target="A92oESy23BLJrJ6_xoGW-32">
          <mxGeometry relative="1" as="geometry" />
        </mxCell>
        <mxCell id="A92oESy23BLJrJ6_xoGW-12" value="Book cab" style="ellipse;whiteSpace=wrap;html=1;strokeWidth=2;fontSize=13;strokeColor=default;fontColor=default;labelBackgroundColor=none;" vertex="1" parent="1">
          <mxGeometry x="356" y="470" width="140" height="70" as="geometry" />
        </mxCell>
        <mxCell id="A92oESy23BLJrJ6_xoGW-13" style="rounded=0;orthogonalLoop=1;jettySize=auto;html=1;exitX=0;exitY=0.5;exitDx=0;exitDy=0;entryX=0.5;entryY=0.5;entryDx=0;entryDy=0;entryPerimeter=0;endArrow=none;endFill=0;strokeWidth=2;" edge="1" parent="1" source="A92oESy23BLJrJ6_xoGW-14" target="A92oESy23BLJrJ6_xoGW-32">
          <mxGeometry relative="1" as="geometry">
            <mxPoint x="160.28574916294644" y="850.714303152902" as="targetPoint" />
          </mxGeometry>
        </mxCell>
        <mxCell id="A92oESy23BLJrJ6_xoGW-14" value="Track the status &lt;br style=&quot;font-size: 13px;&quot;&gt;of drivers" style="ellipse;whiteSpace=wrap;html=1;strokeWidth=2;fontSize=13;strokeColor=default;fontColor=default;labelBackgroundColor=none;" vertex="1" parent="1">
          <mxGeometry x="356" y="825" width="140" height="70" as="geometry" />
        </mxCell>
        <mxCell id="A92oESy23BLJrJ6_xoGW-15" value="Join the training courses" style="ellipse;whiteSpace=wrap;html=1;strokeWidth=2;fontSize=13;strokeColor=default;fontColor=default;labelBackgroundColor=none;" vertex="1" parent="1">
          <mxGeometry x="359" y="346" width="140" height="70" as="geometry" />
        </mxCell>
        <mxCell id="A92oESy23BLJrJ6_xoGW-16" value="Register vehicle" style="ellipse;whiteSpace=wrap;html=1;strokeWidth=2;fontSize=13;strokeColor=default;fontColor=default;labelBackgroundColor=none;" vertex="1" parent="1">
          <mxGeometry x="634" y="753" width="140" height="70" as="geometry" />
        </mxCell>
        <mxCell id="A92oESy23BLJrJ6_xoGW-17" value="Hire a driver" style="ellipse;whiteSpace=wrap;html=1;strokeWidth=2;fontSize=13;strokeColor=default;fontColor=default;labelBackgroundColor=none;" vertex="1" parent="1">
          <mxGeometry x="634" y="540" width="140" height="70" as="geometry" />
        </mxCell>
        <mxCell id="A92oESy23BLJrJ6_xoGW-18" value="Confirm hire/hireing" style="ellipse;whiteSpace=wrap;html=1;strokeWidth=2;fontSize=13;strokeColor=default;fontColor=default;labelBackgroundColor=none;" vertex="1" parent="1">
          <mxGeometry x="634" y="645" width="140" height="70" as="geometry" />
        </mxCell>
        <mxCell id="A92oESy23BLJrJ6_xoGW-19" value="&amp;lt;&amp;lt;include&amp;gt;&amp;gt;" style="html=1;verticalAlign=bottom;labelBackgroundColor=none;endArrow=open;endFill=0;dashed=1;rounded=0;exitX=1;exitY=0.5;exitDx=0;exitDy=0;strokeWidth=2;fontSize=13;strokeColor=default;fontColor=default;" edge="1" parent="1" source="A92oESy23BLJrJ6_xoGW-15" target="A92oESy23BLJrJ6_xoGW-29">
          <mxGeometry x="-0.1397" y="9" width="160" relative="1" as="geometry">
            <mxPoint x="544" y="618" as="sourcePoint" />
            <mxPoint x="704" y="618" as="targetPoint" />
            <mxPoint as="offset" />
          </mxGeometry>
        </mxCell>
        <mxCell id="A92oESy23BLJrJ6_xoGW-20" value="&amp;lt;&amp;lt;include&amp;gt;&amp;gt;" style="html=1;verticalAlign=bottom;labelBackgroundColor=none;endArrow=open;endFill=0;dashed=1;rounded=0;entryX=0.063;entryY=0.763;entryDx=0;entryDy=0;exitX=1;exitY=0;exitDx=0;exitDy=0;entryPerimeter=0;strokeWidth=2;fontSize=13;strokeColor=default;fontColor=default;" edge="1" parent="1" source="A92oESy23BLJrJ6_xoGW-9" target="A92oESy23BLJrJ6_xoGW-29">
          <mxGeometry x="-0.459" y="25" width="160" relative="1" as="geometry">
            <mxPoint x="556" y="515" as="sourcePoint" />
            <mxPoint x="711" y="640" as="targetPoint" />
            <mxPoint y="1" as="offset" />
          </mxGeometry>
        </mxCell>
        <mxCell id="A92oESy23BLJrJ6_xoGW-21" style="rounded=0;orthogonalLoop=1;jettySize=auto;html=1;exitX=0.5;exitY=0.5;exitDx=0;exitDy=0;exitPerimeter=0;entryX=1;entryY=0.5;entryDx=0;entryDy=0;endArrow=none;endFill=0;strokeWidth=2;fontSize=13;strokeColor=default;fontColor=default;labelBackgroundColor=none;" edge="1" parent="1" source="A92oESy23BLJrJ6_xoGW-23" target="A92oESy23BLJrJ6_xoGW-18">
          <mxGeometry relative="1" as="geometry" />
        </mxCell>
        <mxCell id="A92oESy23BLJrJ6_xoGW-22" style="rounded=0;orthogonalLoop=1;jettySize=auto;html=1;exitX=0.5;exitY=0.5;exitDx=0;exitDy=0;exitPerimeter=0;entryX=1;entryY=0.5;entryDx=0;entryDy=0;endArrow=none;endFill=0;strokeWidth=2;fontSize=13;strokeColor=default;fontColor=default;labelBackgroundColor=none;" edge="1" parent="1" source="A92oESy23BLJrJ6_xoGW-23" target="A92oESy23BLJrJ6_xoGW-16">
          <mxGeometry relative="1" as="geometry" />
        </mxCell>
        <mxCell id="A92oESy23BLJrJ6_xoGW-23" value="Driver" style="shape=umlActor;verticalLabelPosition=bottom;verticalAlign=top;html=1;strokeWidth=2;fontSize=13;strokeColor=default;fontColor=default;labelBackgroundColor=none;" vertex="1" parent="1">
          <mxGeometry x="1020" y="687" width="30" height="60" as="geometry" />
        </mxCell>
        <mxCell id="A92oESy23BLJrJ6_xoGW-24" style="rounded=0;orthogonalLoop=1;jettySize=auto;html=1;exitX=0.5;exitY=0.5;exitDx=0;exitDy=0;exitPerimeter=0;entryX=1;entryY=0.5;entryDx=0;entryDy=0;endArrow=none;endFill=0;strokeWidth=2;fontSize=13;strokeColor=default;fontColor=default;labelBackgroundColor=none;" edge="1" parent="1" source="A92oESy23BLJrJ6_xoGW-26" target="A92oESy23BLJrJ6_xoGW-10">
          <mxGeometry relative="1" as="geometry" />
        </mxCell>
        <mxCell id="A92oESy23BLJrJ6_xoGW-25" style="rounded=0;orthogonalLoop=1;jettySize=auto;html=1;exitX=0.5;exitY=0.5;exitDx=0;exitDy=0;exitPerimeter=0;entryX=1;entryY=0.5;entryDx=0;entryDy=0;endArrow=none;endFill=0;strokeWidth=2;fontSize=13;strokeColor=default;fontColor=default;labelBackgroundColor=none;" edge="1" parent="1" source="A92oESy23BLJrJ6_xoGW-26" target="A92oESy23BLJrJ6_xoGW-7">
          <mxGeometry relative="1" as="geometry" />
        </mxCell>
        <mxCell id="A92oESy23BLJrJ6_xoGW-26" value="Admin" style="shape=umlActor;verticalLabelPosition=bottom;verticalAlign=top;html=1;strokeWidth=2;fontSize=13;strokeColor=default;fontColor=default;labelBackgroundColor=none;" vertex="1" parent="1">
          <mxGeometry x="1016" y="930" width="30" height="60" as="geometry" />
        </mxCell>
        <mxCell id="A92oESy23BLJrJ6_xoGW-27" value="Allgemein" style="shape=umlFrame;whiteSpace=wrap;html=1;pointerEvents=0;recursiveResize=0;container=1;collapsible=0;width=160;strokeColor=default;fontColor=default;labelBackgroundColor=none;strokeWidth=2;" vertex="1" parent="1">
          <mxGeometry x="237" y="181" width="621" height="943" as="geometry" />
        </mxCell>
        <mxCell id="A92oESy23BLJrJ6_xoGW-28" value="&amp;nbsp;Announcement" style="ellipse;whiteSpace=wrap;html=1;strokeWidth=2;fontSize=13;strokeColor=default;fontColor=default;labelBackgroundColor=none;" vertex="1" parent="A92oESy23BLJrJ6_xoGW-27">
          <mxGeometry x="269" y="751" width="140" height="70" as="geometry" />
        </mxCell>
        <mxCell id="A92oESy23BLJrJ6_xoGW-29" value="Payment" style="ellipse;whiteSpace=wrap;html=1;strokeWidth=2;fontSize=13;strokeColor=default;fontColor=default;labelBackgroundColor=none;" vertex="1" parent="A92oESy23BLJrJ6_xoGW-27">
          <mxGeometry x="450" y="246" width="140" height="70" as="geometry" />
        </mxCell>
        <mxCell id="A92oESy23BLJrJ6_xoGW-30" value="&amp;lt;&amp;lt;extend&amp;gt;&amp;gt;" style="html=1;verticalAlign=bottom;labelBackgroundColor=none;endArrow=open;endFill=0;dashed=1;rounded=0;entryX=1;entryY=0.5;entryDx=0;entryDy=0;exitX=0;exitY=0.5;exitDx=0;exitDy=0;strokeWidth=2;fontSize=13;strokeColor=default;fontColor=default;" edge="1" parent="1" source="A92oESy23BLJrJ6_xoGW-17" target="A92oESy23BLJrJ6_xoGW-9">
          <mxGeometry x="0.0158" y="33" width="160" relative="1" as="geometry">
            <mxPoint x="664" y="416" as="sourcePoint" />
            <mxPoint x="506" y="267" as="targetPoint" />
            <mxPoint as="offset" />
          </mxGeometry>
        </mxCell>
        <mxCell id="A92oESy23BLJrJ6_xoGW-31" style="rounded=0;orthogonalLoop=1;jettySize=auto;html=1;exitX=0.5;exitY=0.5;exitDx=0;exitDy=0;exitPerimeter=0;entryX=0;entryY=0.5;entryDx=0;entryDy=0;strokeWidth=2;endArrow=none;endFill=0;" edge="1" parent="1" source="A92oESy23BLJrJ6_xoGW-32" target="A92oESy23BLJrJ6_xoGW-15">
          <mxGeometry relative="1" as="geometry" />
        </mxCell>
        <mxCell id="A92oESy23BLJrJ6_xoGW-32" value="Member" style="shape=umlActor;verticalLabelPosition=bottom;verticalAlign=top;html=1;strokeWidth=2;fontSize=13;strokeColor=default;fontColor=default;labelBackgroundColor=none;" vertex="1" parent="1">
          <mxGeometry x="70" y="606" width="30" height="60" as="geometry" />
        </mxCell>
        <mxCell id="A92oESy23BLJrJ6_xoGW-33" style="rounded=0;orthogonalLoop=1;jettySize=auto;html=1;exitX=1;exitY=0.5;exitDx=0;exitDy=0;entryX=0.5;entryY=0.5;entryDx=0;entryDy=0;entryPerimeter=0;endArrow=none;endFill=0;strokeWidth=2;" edge="1" parent="1" source="A92oESy23BLJrJ6_xoGW-28" target="A92oESy23BLJrJ6_xoGW-26">
          <mxGeometry relative="1" as="geometry" />
        </mxCell>
        <mxCell id="A92oESy23BLJrJ6_xoGW-34" style="edgeStyle=orthogonalEdgeStyle;rounded=0;orthogonalLoop=1;jettySize=auto;html=1;startArrow=none;startFill=0;endArrow=classic;endFill=1;strokeWidth=2;entryX=0.5;entryY=0;entryDx=0;entryDy=0;entryPerimeter=0;" edge="1" parent="1" target="A92oESy23BLJrJ6_xoGW-32">
          <mxGeometry relative="1" as="geometry">
            <mxPoint x="85" y="599" as="targetPoint" />
            <mxPoint x="85" y="370" as="sourcePoint" />
          </mxGeometry>
        </mxCell>
        <mxCell id="A92oESy23BLJrJ6_xoGW-37" style="edgeStyle=orthogonalEdgeStyle;rounded=0;orthogonalLoop=1;jettySize=auto;html=1;entryX=0.5;entryY=0;entryDx=0;entryDy=0;entryPerimeter=0;strokeWidth=2;" edge="1" parent="1" target="A92oESy23BLJrJ6_xoGW-32">
          <mxGeometry relative="1" as="geometry">
            <mxPoint x="-33" y="390" as="sourcePoint" />
            <Array as="points">
              <mxPoint x="-34" y="390" />
              <mxPoint x="-34" y="489" />
              <mxPoint x="85" y="489" />
            </Array>
          </mxGeometry>
        </mxCell>
        <mxCell id="A92oESy23BLJrJ6_xoGW-36" value="User" style="shape=umlActor;verticalLabelPosition=bottom;verticalAlign=top;html=1;outlineConnect=0;strokeWidth=2;" vertex="1" parent="1">
          <mxGeometry x="-50" y="300" width="30" height="60" as="geometry" />
        </mxCell>
      </root>
    </mxGraphModel>
  </diagram>
</mxfile>
